<?xml version="1.0" encoding="UTF-8" standalone="no"?>
<svg
   xmlns:dc="http://purl.org/dc/elements/1.1/"
   xmlns:cc="http://creativecommons.org/ns#"
   xmlns:rdf="http://www.w3.org/1999/02/22-rdf-syntax-ns#"
   xmlns:svg="http://www.w3.org/2000/svg"
   xmlns="http://www.w3.org/2000/svg"
   width="100%"
   height="100%"
   viewBox="0 0 64 64"
   version="1.1"
   xml:space="preserve"
   style="fill-rule:evenodd;clip-rule:evenodd;stroke-linecap:round;stroke-linejoin:round;stroke-miterlimit:2;"
   id="svg23">
  <metadata
   id="metadata29">
    <rdf:RDF>
      <cc:Work
   rdf:about="">
        <dc:format>image/svg+xml</dc:format>

        <dc:type
   rdf:resource="http://purl.org/dc/dcmitype/StillImage" />

      </cc:Work>

    </rdf:RDF>

  </metadata>

  <defs
   id="defs27" />

  
  <path
   d="M44.62,37.201c4.349,0 7.88,3.531 7.88,7.88c0,4.349 -3.531,7.88 -7.88,7.88c-4.349,0 -7.88,-3.531 -7.88,-7.88c0,-3.14 1.839,-5.853 4.498,-7.119"
   style="fill:none;stroke:#222a33;stroke-width:1.5px;"
   id="path3" />

  <path
   d="M23.065,48.32c-1.236,2.735 -3.99,4.641 -7.185,4.641c-4.349,0 -7.88,-3.531 -7.88,-7.88c0,-4.349 3.531,-7.88 7.88,-7.88c4.349,0 7.88,3.531 7.88,7.88"
   style="fill:none;stroke:#222a33;stroke-width:1.5px;"
   id="path5" />

  <path
   d="M30.25,45.081l8.344,-12.516l-11.125,0"
   style="fill:none;stroke:#222a33;stroke-width:1.5px;"
   id="path7" />

  <path
   d="M22.833,32.565c0,0 -6.936,12.6 -6.953,12.516c-0.016,-0.084 14.37,0 14.37,0l-10.198,-17.615l4.635,0"
   style="fill:none;stroke:#222a33;stroke-width:1.5px;"
   id="path9" />

  <path
   d="M44.62,45.081l-8.808,-18.542l-0.928,0c-0.615,0 -1.204,0.244 -1.638,0.678c-0.434,0.435 -0.678,1.024 -0.678,1.638c0,0.001 0,0.002 0,0.002"
   style="fill:none;stroke:#222a33;stroke-width:1.5px;"
   id="path11" />

  <path
   d="M56,13.075c0,-1.422 -1.153,-2.575 -2.575,-2.575c-2.518,0 -6.332,0 -8.85,0c-1.422,0 -2.575,1.153 -2.575,2.575c0,4.136 0,12.214 0,16.35c0,1.422 1.153,2.575 2.575,2.575c2.518,0 6.332,0 8.85,0c1.422,0 2.575,-1.153 2.575,-2.575c0,-4.136 0,-12.214 0,-16.35Z"
   style="fill:none;stroke:#222a33;stroke-width:1.5px;"
   id="path13" />

  <path
   d="M48,29l2,0"
   style="fill:none;stroke:#222a33;stroke-width:1.5px;"
   id="path15" />

  <path
   d="M31,24c0,-2.208 1.792,-4 4,-4"
   style="fill:none;stroke:#222a33;stroke-width:1.5px;"
   id="path17" />

  <path
   d="M27.5,24c0,-4.139 3.361,-7.5 7.5,-7.5"
   style="fill:none;stroke:#222a33;stroke-width:1.5px;"
   id="path19" />

  <path
   d="M24,24c0,-6.071 4.929,-11 11,-11"
   style="fill:none;stroke:#222a33;stroke-width:1.5px;"
   id="path21" />

</svg>
